HIERARCHY
ROOT root
{
	OFFSET	0	13.1	24.9
	CHANNELS 6  Xposition Yposition Zposition Xrotation Yrotation Zrotation
	JOINT spine_1
	{
		OFFSET	0	9.99999	0
		CHANNELS 3  Xrotation Yrotation Zrotation
		JOINT spine_2
		{
			OFFSET	0	112	-10
			CHANNELS 3  Xrotation Yrotation Zrotation
			JOINT spine_3
			{
				OFFSET	0	206.5	19.3
				CHANNELS 3  Xrotation Yrotation Zrotation
				JOINT spine_4
				{
					OFFSET	0	110.4	14.6
					CHANNELS 3  Xrotation Yrotation Zrotation
					JOINT neck_1
					{
						OFFSET	0	71.8	-50.3
						CHANNELS 3  Xrotation Yrotation Zrotation
						JOINT neck_2
						{
							OFFSET	0	86.2	-25.8
							CHANNELS 3  Xrotation Yrotation Zrotation
							JOINT head_ee
							{
								OFFSET	0	179.8	-8.7
								CHANNELS 3  Xrotation Yrotation Zrotation
								End Site
								{
									OFFSET	1	0	0
								}
							}
						}
					}
					JOINT left_clavicle
					{
						OFFSET	-43.2	22.4	-70.8
						CHANNELS 3  Xrotation Yrotation Zrotation
						JOINT left_shoulder
						{
							OFFSET	-93.9	-5.79999	48.7
							CHANNELS 3  Xrotation Yrotation Zrotation
							JOINT left_elbow
							{
								OFFSET	-291.4	-30.8	15.2
								CHANNELS 3  Xrotation Yrotation Zrotation
								JOINT left_lowarm_twist
								{
									OFFSET	-110.7	-3.89999	13.6
									CHANNELS 3  Xrotation Yrotation Zrotation
									JOINT left_hand
									{
										OFFSET	-110.7	-3.89999	13.6
										CHANNELS 3  Xrotation Yrotation Zrotation
										JOINT left_ee
										{
											OFFSET	-80.8	-5.10001	12.1
											CHANNELS 3  Xrotation Yrotation Zrotation
											End Site
											{
												OFFSET	1	0	0
											}
										}
									}
								}
							}
						}
					}
					JOINT right_clavicle
					{
						OFFSET	43.2	22.4	-70.8
						CHANNELS 3  Xrotation Yrotation Zrotation
						JOINT right_shoulder
						{
							OFFSET	93.9	-5.79999	48.7
							CHANNELS 3  Xrotation Yrotation Zrotation
							JOINT right_elbow
							{
								OFFSET	291.4	-30.8	15.2
								CHANNELS 3  Xrotation Yrotation Zrotation
								JOINT right_lowarm_twist
								{
									OFFSET	110.7	-3.89999	13.6
									CHANNELS 3  Xrotation Yrotation Zrotation
									JOINT right_hand
									{
										OFFSET	110.7	-3.89999	13.6
										CHANNELS 3  Xrotation Yrotation Zrotation
										JOINT right_ee
										{
											OFFSET	80.8	-5.10001	12.1
											CHANNELS 3  Xrotation Yrotation Zrotation
											End Site
											{
												OFFSET	1	0	0
											}
										}
									}
								}
							}
						}
					}
				}
			}
		}
	}
	JOINT left_hip
	{
		OFFSET	-82.8	-127.5	0.300001
		CHANNELS 3  Xrotation Yrotation Zrotation
		JOINT left_knee
		{
			OFFSET	-28.2	-396.7	2.2
			CHANNELS 3  Xrotation Yrotation Zrotation
			JOINT left_ankle
			{
				OFFSET	-11.7	-411.3	35.4
				CHANNELS 3  Xrotation Yrotation Zrotation
				JOINT left_toes
				{
					OFFSET	0	-60	-88.6
					CHANNELS 3  Xrotation Yrotation Zrotation
					JOINT left_foot_ee
					{
						OFFSET	-22.5	-16.5	-42.2
						CHANNELS 3  Xrotation Yrotation Zrotation
						End Site
						{
							OFFSET	1	0	0
						}
					}
				}
			}
		}
	}
	JOINT right_hip
	{
		OFFSET	82.8	-127.5	0.300001
		CHANNELS 3  Xrotation Yrotation Zrotation
		JOINT right_knee
		{
			OFFSET	28.2	-396.7	2.2
			CHANNELS 3  Xrotation Yrotation Zrotation
			JOINT right_ankle
			{
				OFFSET	11.7	-411.3	35.4
				CHANNELS 3  Xrotation Yrotation Zrotation
				JOINT right_toes
				{
					OFFSET	0	-60	-88.6
					CHANNELS 3  Xrotation Yrotation Zrotation
					JOINT right_foot_ee
					{
						OFFSET	22.5	-16.5	-42.2
						CHANNELS 3  Xrotation Yrotation Zrotation
						End Site
						{
							OFFSET	1	0	0
						}
					}
				}
			}
		}
	}
}
MOTION
Frames: 11
Frame Time: 0.02
449.888 751.862 -551.007 -178.658 -71.0224 179.458 -0.15149 0.612904 1.86674 -0.149687 0.492898 1.90194 -0.131943 0.077753 1.96321 -0.137113 0.386772 1.92632 -10.3782 14.6979 0.178501 -10.6801 27.6168 4.05981 -0.0 0.0 -0.0 -2.1649 23.1877 -0.296188 -9.62778 -34.9423 61.3073 1.74198 -40.7882 0.647677 1.37606 0.0464476 -0.169608 -0.949174 15.0722 0.281846 -0.0 0.0 -0.0 9.58662 21.8983 -18.3302 -17.7085 23.9008 -61.6481 0.77063 20.8942 -0.142094 -13.1193 0.642353 -1.54591 -0.164147 17.2965 8.46813 0.0 0.0 0.0 -5.04384 67.0777 4.38293 -3.99444 0.14373 0.596052 12.2557 -24.3802 -2.03946 -9.9717 0.0 0.0 -0.0 0.0 -0.0 10.4238 24.3392 -0.382468 -24.7487 -0.209131 -3.7627 18.2349 2.35476 2.54528 -13.0952 0.0 0.0 0.0 0.0 0.0 
455.992 751.146 -546.565 -179.35 -71.5437 178.742 -0.2834 0.71323 1.89747 -0.281591 0.591068 1.93899 -0.260009 0.16136 2.02061 -0.265388 0.478391 1.9698 -10.6647 14.3426 0.49165 -10.9702 26.7682 4.33146 -0.0 0.0 -0.0 -2.2208 23.3179 -0.350544 -10.6806 -34.686 60.9689 1.69115 -39.9511 0.614749 1.22696 0.0416122 -0.151178 -0.917398 14.9502 0.42554 -0.0 0.0 -0.0 9.32394 22.223 -17.7171 -16.759 24.1053 -62.9726 0.762616 20.6954 -0.139249 -12.5388 0.606533 -1.48083 -0.037259 18.0357 7.92662 0.0 0.0 0.0 -4.40261 66.7969 4.20821 -3.52976 0.129153 0.526227 11.5937 -24.0226 -1.9275 -11.8273 0.0 0.0 -0.0 0.0 -0.0 8.65881 23.4811 -0.445533 -25.0909 -0.200583 -3.81453 22.5946 2.60724 3.08924 -11.7833 0.0 0.0 0.0 0.0 0.0 
465.535 747.413 -541.376 -178.64 -72.4176 179.725 -0.240587 0.746403 1.91597 -0.238761 0.622996 1.95957 -0.215851 0.189731 2.04741 -0.221337 0.510635 1.99179 -10.3783 13.3112 -1.55216 -10.6334 26.1407 1.99747 -0.0 0.0 -0.0 -1.94768 23.4082 0.0401322 -11.4333 -34.3685 60.7719 1.56426 -37.7689 0.53512 1.10595 0.0376521 -0.136229 -1.15234 14.9177 -1.04393 -0.0 0.0 -0.0 9.15369 22.9573 -17.2739 -15.1378 24.4555 -63.0164 0.768835 20.8497 -0.141454 -11.632 0.551907 -1.37847 0.122916 19.1254 7.31487 0.0 0.0 0.0 -2.57289 66.0586 1.91838 -5.35396 0.183118 0.800972 11.1848 -20.0125 -1.78971 -12.8402 0.0 0.0 -0.0 0.0 -0.0 7.38634 22.8105 -0.250111 -25.3173 -0.194758 -3.84879 25.5131 2.90891 3.43699 -9.83883 0.0 0.0 0.0 0.0 0.0 
475.651 745.138 -538.944 178.235 -72.8251 176.422 -0.341658 0.824786 1.93438 -0.339848 0.70005 1.98292 -0.313868 0.256492 2.08713 -0.319473 0.582828 2.02047 -10.2033 12.5743 -2.97317 -10.4106 25.6831 0.370287 -0.0 0.0 -0.0 -1.80396 23.8713 0.312509 -12.7859 -33.8812 60.5577 1.46081 -35.8888 0.473101 1.02495 0.0349838 -0.126228 -1.31925 14.9317 -2.07188 -0.0 0.0 -0.0 9.04158 23.576 -16.9682 -13.9856 24.6852 -62.7031 0.77239 20.9377 -0.142722 -10.9977 0.514659 -1.30636 0.238605 19.8884 6.86714 0.0 0.0 0.0 -1.04317 65.5198 0.152257 -6.6128 0.215242 0.991483 10.8877 -17.2057 -1.70245 -13.5492 0.0 0.0 -0.0 0.0 -0.0 6.48285 22.1335 -0.0940183 -25.4865 -0.190317 -3.87437 27.496 3.12633 3.66485 -8.4945 0.0 0.0 0.0 0.0 0.0 
480.684 741.698 -534.425 173.276 -72.6629 171.781 -0.58966 0.886567 2.02206 -0.587703 0.756131 2.07434 -0.558217 0.282268 2.18969 -0.564364 0.624469 2.11769 -10.4043 12.1112 -3.91143 -10.5999 25.4392 -0.622802 -0.0 0.0 -0.0 -1.95032 24.1446 0.159325 -13.9512 -33.3785 60.0265 1.36897 -34.1412 0.420398 1.62166 0.0543083 -0.199993 -1.42706 14.8129 -2.7947 -0.0 0.0 -0.0 8.18924 24.1361 -15.0281 -13.403 24.8033 -62.1234 0.807817 21.8096 -0.155634 -10.3548 0.477731 -1.23287 0.383933 22.8688 7.17559 0.0 0.0 0.0 1.3715 61.7918 -2.67556 -10.9976 0.2943 1.65952 7.69983 -11.4514 -1.16978 -12.3794 0.0 0.0 -0.0 0.0 -0.0 5.56429 20.2339 0.314592 -25.631 -0.186465 -3.89621 27.6614 6.58155 3.72752 -7.39471 0.0 0.0 0.0 0.0 0.0 
484.736 739.606 -531.843 170.567 -72.3349 169.03 -0.753685 1.0505 2.18185 -0.751497 0.909567 2.24424 -0.713198 0.388337 2.39014 -0.720363 0.760842 2.2989 -10.766 11.8114 -4.51129 -10.9695 25.2753 -1.20358 -0.0 0.0 -0.0 -1.93651 24.3667 0.214918 -14.5168 -33.0899 60.3447 1.31073 -32.9939 0.388194 2.03346 0.0671952 -0.251014 -1.50458 14.7306 -3.31404 -0.0 0.0 -0.0 7.8936 25.0178 -14.2903 -11.6926 25.3139 -61.6686 0.844034 22.6901 -0.169348 -9.9008 0.452155 -1.18073 0.487995 24.9574 7.38661 0.0 0.0 0.0 5.18031 59.0205 -5.31764 -13.9085 0.318461 2.10545 5.44782 -7.44253 -0.815779 -11.5603 0.0 0.0 -0.0 0.0 -0.0 3.45565 18.6152 1.05573 -25.998 -0.176432 -3.95164 27.7435 9.01784 3.77688 -6.61772 0.0 0.0 0.0 0.0 0.0 
496.824 736.909 -528.025 166.643 -72.1882 164.769 -1.21855 1.06159 2.307 -1.21606 0.912679 2.36983 -1.17493 0.343207 2.51613 -1.18301 0.736158 2.43043 -13.4065 11.5459 -3.7273 -13.7997 24.2859 0.0916844 -0.0 0.0 -0.0 -2.00526 24.5887 0.159951 -15.0028 -32.7705 60.6015 1.27426 -32.2599 0.368532 2.91758 0.0936214 -0.360853 -1.45679 13.2427 -3.70202 -0.0 0.0 -0.0 8.20716 26.7384 -14.804 -9.0207 26.6408 -61.419 0.880486 23.565 -0.183666 -9.21684 0.414404 -1.1018 0.401785 24.0346 7.55611 0.0 0.0 0.0 8.35852 53.0313 -7.78813 -15.9367 0.321892 2.4166 -0.859809 -2.5933 0.128457 -10.2903 0.0 0.0 -0.0 0.0 -0.0 0.973973 16.1971 2.56837 -26.3552 -0.166325 -4.00553 26.2412 11.3463 3.6485 -5.49468 0.0 0.0 0.0 0.0 0.0 
494.536 740.795 -525.272 165.625 -73.1695 163.71 -1.50629 1.01732 2.34591 -1.50364 0.86603 2.40585 -1.46356 0.27667 2.54189 -1.47195 0.674519 2.46637 -16.0391 10.9522 -2.89664 -16.5529 22.6492 1.24185 -0.0 0.0 -0.0 -1.91893 24.1424 0.201354 -15.5503 -32.5514 60.3153 1.24188 -31.5981 0.351407 4.0604 0.125261 -0.503404 -1.37492 11.4949 -3.98627 -0.0 0.0 -0.0 9.22836 28.2626 -16.8922 -5.64322 28.7215 -60.6401 0.922475 24.5585 -0.200786 -7.66527 0.332288 -0.921143 0.344673 21.6149 6.89917 0.0 0.0 0.0 8.64479 45.576 -6.71285 -17.3082 0.317971 2.62698 -3.56158 1.91003 0.528829 -9.1907 0.0 0.0 -0.0 0.0 -0.0 0.215983 13.7631 2.56714 -23.6252 -0.235009 -3.59224 22.4424 14.83 3.2595 -5.35875 0.0 0.0 0.0 0.0 0.0 
489.711 746.164 -520.154 163.663 -73.0289 162.034 -1.89926 0.971265 2.42006 -1.89637 0.815351 2.47691 -1.85686 0.192806 2.60045 -1.86579 0.600946 2.53744 -17.4397 10.4105 -2.75078 -17.9791 21.5123 1.44948 -0.0 0.0 -0.0 -1.84469 23.825 0.249627 -15.9239 -32.3843 60.1388 1.21202 -30.9795 0.335902 4.8633 0.145785 -0.603913 -1.33812 10.5611 -4.1776 -0.0 0.0 -0.0 9.39868 28.3828 -17.256 -4.16528 29.8614 -58.8993 0.958963 25.4093 -0.216198 -6.57809 0.277686 -0.793283 0.275972 19.9786 6.65663 0.0 0.0 0.0 9.97758 39.8031 -5.46254 -18.2703 0.312214 2.77449 -5.52153 5.21529 0.818828 -8.46969 0.0 0.0 -0.0 0.0 -0.0 -0.419511 12.1087 2.38433 -21.8821 -0.26853 -3.32687 19.7161 17.3706 2.96149 -5.27616 0.0 0.0 0.0 0.0 0.0 
488.359 751.94 -519.855 161.886 -73.6226 159.728 -2.12569 0.928736 2.53129 -2.12245 0.765836 2.58521 -2.08309 0.107893 2.69403 -2.09283 0.53186 2.64325 -18.4345 9.98758 -2.64345 -18.9791 20.6232 1.56465 -0.0 0.0 -0.0 -1.63382 23.6821 0.513708 -16.1969 -32.2868 60.23 1.1684 -30.0609 0.313749 5.42402 0.159282 -0.674268 -1.32798 10.1271 -4.31033 -0.0 0.0 -0.0 9.50406 28.4397 -17.4832 -2.87912 30.7336 -57.4504 0.985059 26.0105 -0.227519 -5.80569 0.240375 -0.701831 0.220043 18.8231 6.53675 0.0 0.0 0.0 10.9484 35.5804 -4.53391 -18.9864 0.306322 2.8842 -6.89804 7.01247 1.02402 -7.95632 0.0 0.0 -0.0 0.0 -0.0 -1.00443 10.9713 2.55089 -21.2471 -0.278732 -3.22997 18.2591 18.5195 2.78957 -5.14895 0.0 0.0 0.0 0.0 0.0 
500.167 745.67 -520.377 159.249 -74.2103 156.98 -2.40135 0.783468 2.69487 -2.39751 0.610465 2.73922 -2.36288 -0.0944334 2.80478 -2.37368 0.34954 2.78453 -18.625 9.49454 -5.94339 -19.1487 21.4176 -1.67851 -0.0 0.0 -0.0 -1.44326 23.5907 0.759497 -16.5652 -32.2648 60.5019 1.03052 -27.0433 0.247825 6.49571 0.183159 -0.809085 -1.08285 10.2718 -2.67451 -0.0 0.0 -0.0 9.52991 28.1 -17.5806 -2.1669 31.2522 -55.9623 1.00294 26.4189 -0.235418 -5.58444 0.229916 -0.675546 -0.279291 16.5145 8.91549 0.0 0.0 0.0 13.3276 32.5182 -4.66174 -19.8827 0.297017 3.02141 -4.05715 4.07511 0.600806 -9.81093 0.0 0.0 -0.0 0.0 -0.0 -2.0137 12.6028 2.87761 -23.0088 -0.247786 -3.49851 20.4928 15.6372 3.02538 -4.92202 0.0 0.0 0.0 0.0 0.0 
